ffmpeg version 4.2.7-0ubuntu0.1 Copyright (c) 2000-2022 the FFmpeg developers
  built with gcc 9 (Ubuntu 9.4.0-1ubuntu1~20.04.1)
  configuration: --prefix=/usr --extra-version=0ubuntu0.1 --toolchain=hardened --libdir=/usr/lib/x86_64-linux-gnu --incdir=/usr/include/x86_64-linux-gnu --arch=amd64 --enable-gpl --disable-stripping --enable-avresample --disable-filter=resample --enable-avisynth --enable-gnutls --enable-ladspa --enable-libaom --enable-libass --enable-libbluray --enable-libbs2b --enable-libcaca --enable-libcdio --enable-libcodec2 --enable-libflite --enable-libfontconfig --enable-libfreetype --enable-libfribidi --enable-libgme --enable-libgsm --enable-libjack --enable-libmp3lame --enable-libmysofa --enable-libopenjpeg --enable-libopenmpt --enable-libopus --enable-libpulse --enable-librsvg --enable-librubberband --enable-libshine --enable-libsnappy --enable-libsoxr --enable-libspeex --enable-libssh --enable-libtheora --enable-libtwolame --enable-libvidstab --enable-libvorbis --enable-libvpx --enable-libwavpack --enable-libwebp --enable-libx265 --enable-libxml2 --enable-libxvid --enable-libzmq --enable-libzvbi --enable-lv2 --enable-omx --enable-openal --enable-opencl --enable-opengl --enable-sdl2 --enable-libdc1394 --enable-libdrm --enable-libiec61883 --enable-nvenc --enable-chromaprint --enable-frei0r --enable-libx264 --enable-shared
  libavutil      56. 31.100 / 56. 31.100
  libavcodec     58. 54.100 / 58. 54.100
  libavformat    58. 29.100 / 58. 29.100
  libavdevice    58.  8.100 / 58.  8.100
  libavfilter     7. 57.100 /  7. 57.100
  libavresample   4.  0.  0 /  4.  0.  0
  libswscale      5.  5.100 /  5.  5.100
  libswresample   3.  5.100 /  3.  5.100
  libpostproc    55.  5.100 / 55.  5.100
Routing option strict to both codec and muxer layer
[h264 @ 0x5654d3ed8440] Reinit context to 1920x1088, pix_fmt: yuv420p
Input #0, mov,mp4,m4a,3gp,3g2,mj2, from '/var/www/html/project/media/video/original/IMG_8057.mov':
  Metadata:
    major_brand     : qt  
    minor_version   : 0
    compatible_brands: qt  
    creation_time   : 2024-05-31T11:57:41.000000Z
    com.apple.quicktime.location.accuracy.horizontal: 36.000000
    com.apple.quicktime.location.ISO6709: +44.0717+012.5303+012.168/
    com.apple.quicktime.make: Apple
    com.apple.quicktime.model: iPhone 14 Pro Max
    com.apple.quicktime.software: 17.4.1
    com.apple.quicktime.creationdate: 2024-05-30T13:19:34+0200
    com.apple.photos.originating.signature: AYpa14XSwhsDzetomYci+4v+7hXF
  Duration: 00:00:12.17, start: 0.000000, bitrate: 15179 kb/s
    Stream #0:0(und): Audio: aac (LC) (mp4a / 0x6134706D), 44100 Hz, stereo, fltp, 182 kb/s (default)
    Metadata:
      creation_time   : 2024-05-31T11:57:41.000000Z
      handler_name    : Core Media Audio
    Stream #0:1(und): Video: h264 (High), 1 reference frame (avc1 / 0x31637661), yuv420p(tv, bt709, left), 1920x1080 (1920x1088), 14928 kb/s, 30 fps, 30 tbr, 600 tbn, 1200 tbc (default)
    Metadata:
      creation_time   : 2024-05-31T11:57:41.000000Z
      handler_name    : Core Media Video
      encoder         : H.264
    Stream #0:2(und): Data: none (mebx / 0x7862656D), 0 kb/s (default)
    Metadata:
      creation_time   : 2024-05-31T11:57:41.000000Z
      handler_name    : Core Media Metadata
    Stream #0:3(und): Data: none (mebx / 0x7862656D), 16 kb/s (default)
    Metadata:
      creation_time   : 2024-05-31T11:57:41.000000Z
      handler_name    : Core Media Metadata
    Stream #0:4(und): Data: none (mebx / 0x7862656D), 40 kb/s (default)
    Metadata:
      creation_time   : 2024-05-31T11:57:41.000000Z
      handler_name    : Core Media Metadata
Input #1, png_pipe, from '/var/www/html/project/static/images/templates/logo.png':
  Duration: N/A, bitrate: N/A
    Stream #1:0: Video: png, 1 reference frame, rgba(pc), 1920x1080 [SAR 2835:2835 DAR 16:9], 25 tbr, 25 tbn, 25 tbc
[Parsed_scale_0 @ 0x5654d3f2c8c0] w:1280 h:720 flags:'bilinear' interl:0
[Parsed_scale_2 @ 0x5654d3f2a140] w:1280 h:720 flags:'bilinear' interl:0
Stream mapping:
  Stream #0:1 (h264) -> scale (graph 0)
  Stream #1:0 (png) -> scale (graph 0)
  overlay (graph 0) -> Stream #0:0 (libx264)
  Stream #0:0 -> #0:1 (aac (native) -> aac (native))
Press [q] to stop, [?] for help
[graph_1_in_0_0 @ 0x5654d3f2c1c0] tb:1/44100 samplefmt:fltp samplerate:44100 chlayout:0x3
[h264 @ 0x5654d3f432c0] Reinit context to 1920x1088, pix_fmt: yuv420p
[Parsed_scale_0 @ 0x5654d3f3a440] w:1280 h:720 flags:'bilinear' interl:0
[Parsed_scale_2 @ 0x5654d4f7bc40] w:1280 h:720 flags:'bilinear' interl:0
[graph 0 input from stream 0:1 @ 0x5654d4f7d680] w:1920 h:1080 pixfmt:yuv420p tb:1/600 fr:30/1 sar:0/1 sws_param:flags=2
[graph 0 input from stream 1:0 @ 0x5654d4f7e6c0] w:1920 h:1080 pixfmt:rgba tb:1/25 fr:25/1 sar:2835/2835 sws_param:flags=2
[Parsed_scale_0 @ 0x5654d3f3a440] w:1920 h:1080 fmt:yuv420p sar:0/1 -> w:1280 h:720 fmt:yuv420p sar:0/1 flags:0x2
[Parsed_setsar_1 @ 0x5654d4d0bc80] w:1280 h:720 sar:0/1 dar:16/9 -> sar:1/1 dar:16/9
[Parsed_scale_2 @ 0x5654d4f7bc40] w:1920 h:1080 fmt:rgba sar:2835/2835 -> w:1280 h:720 fmt:yuva420p sar:1/1 flags:0x2
[Parsed_setsar_3 @ 0x5654d4f7c1c0] w:1280 h:720 sar:1/1 dar:16/9 -> sar:1/1 dar:16/9
[Parsed_overlay_4 @ 0x5654d4f7c880] main w:1280 h:720 fmt:yuv420p overlay w:1280 h:720 fmt:yuva420p
[Parsed_overlay_4 @ 0x5654d4f7c880] [framesync @ 0x5654d4f7c9a8] Selected 1/600 time base
[Parsed_overlay_4 @ 0x5654d4f7c880] [framesync @ 0x5654d4f7c9a8] Sync level 2
[libx264 @ 0x5654d3f40700] using SAR=1/1
[libx264 @ 0x5654d3f40700] using cpu capabilities: MMX2 SSE2Fast SSSE3 SSE4.2 AVX FMA3 BMI2 AVX2
[libx264 @ 0x5654d3f40700] profile High, level 3.1
[libx264 @ 0x5654d3f40700] 264 - core 155 r2917 0a84d98 - H.264/MPEG-4 AVC codec - Copyleft 2003-2018 - http://www.videolan.org/x264.html - options: cabac=1 ref=1 deblock=1:0:0 analyse=0x3:0x113 me=hex subme=2 psy=1 psy_rd=1.00:0.00 mixed_ref=0 me_range=16 chroma_me=1 trellis=0 8x8dct=1 cqm=0 deadzone=21,11 fast_pskip=1 chroma_qp_offset=0 threads=22 lookahead_threads=5 sliced_threads=0 nr=0 decimate=1 interlaced=0 bluray_compat=0 constrained_intra=0 bframes=3 b_pyramid=2 b_adapt=1 b_bias=0 direct=1 weightb=1 open_gop=0 weightp=1 keyint=250 keyint_min=25 scenecut=40 intra_refresh=0 rc_lookahead=10 rc=crf mbtree=1 crf=18.0 qcomp=0.60 qpmin=0 qpmax=69 qpstep=4 ip_ratio=1.40 aq=1:1.00
Output #0, mp4, to '/var/www/html/project/media/video/watermarks/IMG_8057.mp4':
  Metadata:
    major_brand     : qt  
    minor_version   : 0
    compatible_brands: qt  
    com.apple.photos.originating.signature: AYpa14XSwhsDzetomYci+4v+7hXF
    com.apple.quicktime.location.accuracy.horizontal: 36.000000
    com.apple.quicktime.location.ISO6709: +44.0717+012.5303+012.168/
    com.apple.quicktime.make: Apple
    com.apple.quicktime.model: iPhone 14 Pro Max
    com.apple.quicktime.software: 17.4.1
    com.apple.quicktime.creationdate: 2024-05-30T13:19:34+0200
    encoder         : Lavf58.29.100
    Stream #0:0: Video: h264 (libx264), 1 reference frame (avc1 / 0x31637661), yuv420p, 1280x720 [SAR 1:1 DAR 16:9], q=-1--1, 30 fps, 15360 tbn, 30 tbc (default)
    Metadata:
      encoder         : Lavc58.54.100 libx264
    Side data:
      cpb: bitrate max/min/avg: 0/0/0 buffer size: 0 vbv_delay: -1
    Stream #0:1(und): Audio: aac (LC) (mp4a / 0x6134706D), 44100 Hz, stereo, fltp, delay 1024, 128 kb/s (default)
    Metadata:
      creation_time   : 2024-05-31T11:57:41.000000Z
      handler_name    : Core Media Audio
      encoder         : Lavc58.54.100 aac
[Parsed_overlay_4 @ 0x5654d4f7c880] [framesync @ 0x5654d4f7c9a8] Sync level 0
No more output streams to write to, finishing.
frame=  365 fps= 58 q=-1.0 Lsize=    7908kB time=00:00:12.19 bitrate=5314.2kbits/s speed=1.93x    
[AVIOContext @ 0x5654d3ed10c0] Statistics: 0 seeks, 13 writeouts
video:7703kB audio:191kB subtitle:0kB other streams:0kB global headers:0kB muxing overhead: 0.180682%
Input file #0 (/var/www/html/project/media/video/original/IMG_8057.mov):
  Input stream #0:0 (audio): 527 packets read (279653 bytes); 525 frames decoded (537536 samples); 
  Input stream #0:1 (video): 365 packets read (22706637 bytes); 365 frames decoded; 
  Input stream #0:2 (data): 0 packets read (0 bytes); 
  Input stream #0:3 (data): 0 packets read (0 bytes); 
  Input stream #0:4 (data): 0 packets read (0 bytes); 
  Total: 892 packets (22986290 bytes) demuxed
Input file #1 (/var/www/html/project/static/images/templates/logo.png):
  Input stream #1:0 (video): 1 packets read (111578 bytes); 1 frames decoded; 
  Total: 1 packets (111578 bytes) demuxed
Output file #0 (/var/www/html/project/media/video/watermarks/IMG_8057.mp4):
  Output stream #0:0 (video): 365 frames encoded; 365 packets muxed (7887934 bytes); 
  Output stream #0:1 (audio): 525 frames encoded (537536 samples); 526 packets muxed (195322 bytes); 
  Total: 891 packets (8083256 bytes) muxed
[AVIOContext @ 0x5654d3f2e600] Statistics: 2 seeks, 34 writeouts
[libx264 @ 0x5654d3f40700] frame I:2     Avg QP:18.05  size:104750
[libx264 @ 0x5654d3f40700] frame P:92    Avg QP:20.20  size: 44984
[libx264 @ 0x5654d3f40700] frame B:271   Avg QP:22.39  size: 13060
[libx264 @ 0x5654d3f40700] consecutive B-frames:  0.8%  0.5%  0.0% 98.6%
[libx264 @ 0x5654d3f40700] mb I  I16..4: 10.2% 28.5% 61.2%
[libx264 @ 0x5654d3f40700] mb P  I16..4:  6.5% 11.7%  9.3%  P16..4: 32.1% 19.5% 13.7%  0.0%  0.0%    skip: 7.3%
[libx264 @ 0x5654d3f40700] mb B  I16..4:  1.5%  0.9%  0.4%  B16..8: 24.4% 13.5%  3.9%  direct:10.2%  skip:45.3%  L0:32.1% L1:39.5% BI:28.5%
[libx264 @ 0x5654d3f40700] 8x8 transform intra:39.8% inter:26.1%
[libx264 @ 0x5654d3f40700] coded y,uvDC,uvAC intra: 62.0% 76.9% 44.1% inter: 17.0% 23.2% 4.1%
[libx264 @ 0x5654d3f40700] i16 v,h,dc,p: 42% 30% 14% 13%
[libx264 @ 0x5654d3f40700] i8 v,h,dc,ddl,ddr,vr,hd,vl,hu: 17% 35% 18%  4%  4%  4%  6%  4%  7%
[libx264 @ 0x5654d3f40700] i4 v,h,dc,ddl,ddr,vr,hd,vl,hu: 25% 23% 11%  5%  8%  8%  8%  6%  6%
[libx264 @ 0x5654d3f40700] i8c dc,h,v,p: 37% 31% 23%  9%
[libx264 @ 0x5654d3f40700] Weighted P-Frames: Y:0.0% UV:0.0%
[libx264 @ 0x5654d3f40700] kb/s:5186.13
[aac @ 0x5654d3f24c40] Qavg: 292.325
[AVIOContext @ 0x5654d3eda000] Statistics: 34361716 bytes read, 681 seeks
[AVIOContext @ 0x5654d3ef3ec0] Statistics: 111578 bytes read, 0 seeks
